# xmcd
#
# Track frame offsets:
#	150
#	21175
#	35418
#	51226
#	59930
#	67811
#	86272
#	100045
#	110659
#	129375
#	137523
#	152324
#	171476
#	192791
#	201019
#	214715
#	228921
#	242449
#	251365
#	266376
#	285924
#	297722
#	315297
#	337633
#
# Disc length: 4672 seconds
#
# Revision: 0
# Processed by: cddbd v1.5.2PL0 Copyright (c) Steve Scherf et al.
# Submitted via: EasyCDDAExtractor 11.0.3.1
#
DISCID=44123e18
DTITLE=Various Artist - Country Hits, Vol. 07
DYEAR=2008
DGENRE=Country
TTITLE0=Alan Jackson - Small Town Southern Man
TTITLE1=Pirates Of The Mississippi - Rollin' Home
TTITLE2=Gretchen Wilson - The Girl I Am
TTITLE3=Roger Miller - You Can't Roller Skate In A Bufalo Herd
TTITLE4=Johnny Cash - Guess Things Happen That Way
TTITLE5=Alan Jackson - Country Boy
TTITLE6=Pirates Of The Mississippi - Speak Of The Devil
TTITLE7=Roger Miller - Kansas City Star
TTITLE8=Alan Jackson - 1976
TTITLE9=Roger Miller - Do-Wacka-Do
TTITLE10=Johnny Cash - Cats In The Cradle
TTITLE11=Pirates Of The Mississippi - Dream You (Dance Mix)
TTITLE12=Alan Jackson - Nothing Left To Do
TTITLE13=Roger Miller - In The Summertime
TTITLE14=Laura Branigan - Squeeze Box
TTITLE15=Alan Jackson - Listen To Your Senses
TTITLE16=Pirates Of The Mississippi - Honky Tonk Blues
TTITLE17=Roger Miller - My Uncle Used To Love Me But She Died
TTITLE18=Johnny Cash - Goin' By The Book
TTITLE19=Alan Jackson - If You Want To Make Me Happy
TTITLE20=Roger Miller - Walking In The Sunshine
TTITLE21=Pirates Of The Mississippi - Pop From The Top (Dance Mix)
TTITLE22=Alan Jackson - If Jesus Walked The World Today
TTITLE23=Roger Miller - Heartaches By The Number
EXTD=
EXTT0=
EXTT1=
EXTT2=
EXTT3=
EXTT4=
EXTT5=
EXTT6=
EXTT7=
EXTT8=
EXTT9=
EXTT10=
EXTT11=
EXTT12=
EXTT13=
EXTT14=
EXTT15=
EXTT16=
EXTT17=
EXTT18=
EXTT19=
EXTT20=
EXTT21=
EXTT22=
EXTT23=
PLAYORDER=
